<svg width="24" height="24" viewBox="0 0 24 24" fill="none" xmlns="http://www.w3.org/2000/svg">
<path d="M8.49097 1L4.50897 4.993M15.509 1L19.491 4.993" stroke="black" stroke-miterlimit="10" stroke-linecap="round" stroke-linejoin="round"/>
<path d="M1 7.43499C1 5.39999 2.089 5.23499 3.442 5.23499H20.558C21.911 5.23499 23 5.39999 23 7.43499C23 9.79999 21.911 9.63499 20.558 9.63499H3.442C2.089 9.63499 1 9.79999 1 7.43499Z" stroke="black"/>
<path d="M9.53596 14.1999V18.1049M14.596 14.1999V18.1049M2.64996 9.79993L4.20096 19.3039C4.55296 21.4379 5.39996 22.9999 8.54596 22.9999H15.179C18.6 22.9999 19.106 21.5039 19.502 19.4359L21.35 9.79993" stroke="black" stroke-linecap="round"/>
</svg>
