<svg width="24" height="24" viewBox="0 0 24 24" fill="none" xmlns="http://www.w3.org/2000/svg">
<path d="M12.1321 12.8581C12.0444 12.8471 11.9557 12.8471 11.8681 12.8581C10.9352 12.8267 10.0511 12.4339 9.40246 11.7627C8.75385 11.0915 8.39153 10.1945 8.39206 9.26108C8.39206 7.27008 9.99806 5.65308 12.0001 5.65308C12.9454 5.65144 13.8536 6.02137 14.5288 6.68312C15.2039 7.34488 15.592 8.24544 15.6093 9.19067C15.6266 10.1359 15.2718 11.0501 14.6213 11.7361C13.9709 12.4221 13.0769 12.8251 12.1321 12.8581V12.8581ZM19.4141 20.1181C17.3926 21.9761 14.7457 23.005 12.0001 23.0001C9.14006 23.0001 6.54406 21.9111 4.58606 20.1181C4.69606 19.0841 5.35606 18.0721 6.53306 17.2801C9.54706 15.2781 14.4751 15.2781 17.4671 17.2801C18.6441 18.0721 19.3041 19.0841 19.4141 20.1181V20.1181Z" stroke="black" stroke-linecap="round" stroke-linejoin="round"/>
<path d="M12 23C18.0753 23 23 18.0753 23 12C23 5.9247 18.0753 1 12 1C5.9247 1 1 5.9247 1 12C1 18.0753 5.9247 23 12 23Z" stroke="black" stroke-linecap="round" stroke-linejoin="round"/>
</svg>
