<svg width="30" height="30" viewBox="0 0 30 30" fill="none" xmlns="http://www.w3.org/2000/svg">
<path d="M17.5964 16.4837C17.5964 15.9918 17.7918 15.5201 18.1395 15.1723C18.4873 14.8245 18.9591 14.6292 19.4509 14.6292C19.9428 14.6292 20.4145 14.8245 20.7623 15.1723C21.1101 15.5201 21.3055 15.9918 21.3055 16.4837C21.3055 16.9756 21.1101 17.4473 20.7623 17.7951C20.4145 18.1429 19.9428 18.3382 19.4509 18.3382C18.9591 18.3382 18.4873 18.1429 18.1395 17.7951C17.7918 17.4473 17.5964 16.9756 17.5964 16.4837ZM29.8364 15.0001V29.8364H0.163635V15.0001C0.163635 6.84006 6.84 0.163696 15 0.163696C23.16 0.163696 29.8364 6.84006 29.8364 15.0001ZM3.13091 15.0001C3.13091 21.5429 8.45716 26.8692 15 26.8692C21.5428 26.8692 26.8691 21.5429 26.8691 15.0001C26.8691 13.828 26.6911 12.7004 26.3795 11.647C23.5112 12.3134 20.5094 12.1088 17.7581 11.0595C15.0068 10.0103 12.631 8.16403 10.9348 5.75701C9.48087 9.3029 6.70647 12.1663 3.20509 13.7241C3.13091 14.1396 3.13091 14.5698 3.13091 15.0001ZM10.5491 18.3382C11.0409 18.3382 11.5127 18.1429 11.8605 17.7951C12.2082 17.4473 12.4036 16.9756 12.4036 16.4837C12.4036 15.9918 12.2082 15.5201 11.8605 15.1723C11.5127 14.8245 11.0409 14.6292 10.5491 14.6292C10.0572 14.6292 9.58552 14.8245 9.23773 15.1723C8.88993 15.5201 8.69454 15.9918 8.69454 16.4837C8.69454 16.9756 8.88993 17.4473 9.23773 17.7951C9.58552 18.1429 10.0572 18.3382 10.5491 18.3382Z" fill="#292929"/>
</svg>
