<svg width="40" height="40" viewBox="0 0 40 40" fill="none" xmlns="http://www.w3.org/2000/svg">
<path d="M20 39C30.4937 39 39 30.4937 39 20C39 9.5063 30.4937 1 20 1C9.5063 1 1 9.5063 1 20C1 30.4937 9.5063 39 20 39ZM20 25.4754V14.0754V25.4754Z" fill="#CFFF7B"/>
<path d="M20 25.4754V14.0754M20 39C30.4937 39 39 30.4937 39 20C39 9.5063 30.4937 1 20 1C9.5063 1 1 9.5063 1 20C1 30.4937 9.5063 39 20 39Z" stroke="black" stroke-linecap="round" stroke-linejoin="round"/>
<path d="M14.3 19.0502L20 13.3502L25.7 19.0502" stroke="black" stroke-linecap="round" stroke-linejoin="round"/>
</svg>
