<svg width="30" height="30" viewBox="0 0 30 30" fill="none" xmlns="http://www.w3.org/2000/svg">
<path d="M10.5491 14.6292C10.0572 14.6292 9.58549 14.8245 9.2377 15.1723C8.8899 15.5201 8.69451 15.9918 8.69451 16.4837C8.69451 16.9756 8.8899 17.4473 9.2377 17.7951C9.58549 18.1429 10.0572 18.3382 10.5491 18.3382C10.7926 18.3382 11.0338 18.2903 11.2588 18.1971C11.4838 18.1039 11.6882 17.9673 11.8604 17.7951C12.0326 17.6228 12.1692 17.4184 12.2624 17.1934C12.3556 16.9684 12.4036 16.7272 12.4036 16.4837C12.4036 16.2402 12.3556 15.999 12.2624 15.774C12.1692 15.549 12.0326 15.3445 11.8604 15.1723C11.6882 15.0001 11.4838 14.8635 11.2588 14.7703C11.0338 14.6771 10.7926 14.6292 10.5491 14.6292ZM19.4509 14.6292C18.959 14.6292 18.4873 14.8245 18.1395 15.1723C17.7917 15.5201 17.5963 15.9918 17.5963 16.4837C17.5963 16.9756 17.7917 17.4473 18.1395 17.7951C18.4873 18.1429 18.959 18.3382 19.4509 18.3382C19.9427 18.3382 20.4144 18.1429 20.7622 17.7951C21.11 17.4473 21.3054 16.9756 21.3054 16.4837C21.3054 15.9918 21.11 15.5201 20.7622 15.1723C20.4144 14.8245 19.9427 14.6292 19.4509 14.6292ZM15 0.163696C13.0516 0.163696 11.1224 0.54745 9.32234 1.29305C7.52231 2.03864 5.88676 3.13148 4.50908 4.50917C1.72672 7.29152 0.163605 11.0652 0.163605 15.0001C0.163605 18.9349 1.72672 22.7086 4.50908 25.491C5.88676 26.8686 7.52231 27.9615 9.32234 28.7071C11.1224 29.4527 13.0516 29.8364 15 29.8364C18.9348 29.8364 22.7085 28.2733 25.4909 25.491C28.2732 22.7086 29.8363 18.9349 29.8363 15.0001C29.8363 13.0517 29.4526 11.1225 28.707 9.32243C27.9614 7.5224 26.8685 5.88685 25.4909 4.50917C24.1132 3.13148 22.4776 2.03864 20.6776 1.29305C18.8776 0.54745 16.9483 0.163696 15 0.163696ZM15 26.8692C8.45713 26.8692 3.13088 21.5429 3.13088 15.0001C3.13088 14.5698 3.13088 14.1396 3.20506 13.7241C6.70644 12.1663 9.48084 9.3029 10.9348 5.75701C12.631 8.16403 15.0067 10.0103 17.7581 11.0595C20.5094 12.1088 23.5112 12.3134 26.3795 11.647C26.691 12.7004 26.8691 13.828 26.8691 15.0001C26.8691 21.5429 21.5428 26.8692 15 26.8692Z" fill="#292929"/>
</svg>
