<svg width="223" height="30" viewBox="0 0 223 30" fill="none" xmlns="http://www.w3.org/2000/svg">
<path d="M68.9465 30L79.0287 0H72.6333L65.335 21.6564L58.0743 0H51.6789L61.7235 30H68.9465Z" fill="white"/>
<path d="M90.6877 0H84.4428V30H90.6877V0Z" fill="white"/>
<path d="M96.6614 0V6.00742H107.27V30H114.004V6.00742H124.613V0H96.6614Z" fill="white"/>
<path d="M146.392 30H152.825L142.292 0H135.219L124.046 30H130.441L132.811 23.8072H144.022L146.392 30ZM134.918 18.2818L138.417 9.15945L141.915 18.2818H134.918Z" fill="white"/>
<path d="M177.713 30H180.798V0H177.713V12.4598H160.407V0H157.323V30H160.407V15.3523H177.713V30Z" fill="white"/>
<path d="M189.879 30V0H186.794V30H189.879Z" fill="white"/>
<path d="M223 2.92954V0H194.446V2.92954H207.162V30H210.247V2.92954H223Z" fill="white"/>
<path d="M5.61503 15.2854H32.1575M33.0722 22.0173V7.83862M38.6019 19.8361V10.02M1 19.836V10.02M6.52959 22.0173L6.52959 7.83862" stroke="#B8FF3C" stroke-width="1.72619"/>
</svg>
