<svg width="149" height="20" viewBox="0 0 149 20" fill="none" xmlns="http://www.w3.org/2000/svg">
<path d="M46.2977 20L53.0192 0H48.7555L43.89 14.4376L39.0496 0H34.7859L41.4823 20H46.2977Z" fill="#292929"/>
<path d="M60.7918 0H56.6285V20H60.7918V0Z" fill="#292929"/>
<path d="M64.7743 0V4.00494H71.8468V20H76.3362V4.00494H83.4088V0H64.7743Z" fill="#292929"/>
<path d="M97.9282 20H102.217L95.1944 0H90.4794L83.0306 20H87.2942L88.8742 15.8714H96.3481L97.9282 20ZM90.2787 12.1879L92.6112 6.1063L94.9436 12.1879H90.2787Z" fill="#292929"/>
<path d="M118.808 20H120.865V0H118.808V8.30655H107.272V0H105.215V20H107.272V10.2349H118.808V20Z" fill="#292929"/>
<path d="M126.919 20V0H124.863V20H126.919Z" fill="#292929"/>
<path d="M149 1.95303V0H129.964V1.95303H138.441V20H140.498V1.95303H149Z" fill="#292929"/>
<path d="M4.07669 10.1901H21.7717M22.3815 14.6781V5.22559M26.0679 13.2239V6.67986M1 13.2238V6.67981M4.68639 14.6781L4.68639 5.22559" stroke="#B8FF3C" stroke-width="1.72619"/>
</svg>
