<?xml version="1.0" standalone="no"?>
<!DOCTYPE svg PUBLIC "-//W3C//DTD SVG 20010904//EN"
 "http://www.w3.org/TR/2001/REC-SVG-20010904/DTD/svg10.dtd">
<svg version="1.0" xmlns="http://www.w3.org/2000/svg"
 width="700.000000pt" height="700.000000pt" viewBox="0 0 700.000000 700.000000"
 preserveAspectRatio="xMidYMid meet">
<metadata>
Created by potrace 1.14, written by Peter Selinger 2001-2017
</metadata>
<g transform="translate(0.000000,700.000000) scale(0.100000,-0.100000)"
fill="#000000" stroke="none">
<path d="M1690 3390 l0 -1640 190 0 190 0 0 685 0 685 1430 0 1430 0 0 -685 0
-685 190 0 190 0 0 1640 0 1640 -190 0 -190 0 0 -765 0 -765 -1430 0 -1430 0
0 765 0 765 -190 0 -190 0 0 -1640z"/>
<path d="M690 3325 l0 -1135 185 0 185 0 0 1135 0 1135 -185 0 -185 0 0 -1135z"/>
<path d="M5940 3325 l0 -1135 185 0 185 0 0 1135 0 1135 -185 0 -185 0 0
-1135z"/>
</g>
</svg>
