<?xml version="1.0" standalone="no"?>
<!DOCTYPE svg PUBLIC "-//W3C//DTD SVG 20010904//EN"
 "http://www.w3.org/TR/2001/REC-SVG-20010904/DTD/svg10.dtd">
<svg version="1.0" xmlns="http://www.w3.org/2000/svg"
 width="700.000000pt" height="700.000000pt" viewBox="0 0 700.000000 700.000000"
 preserveAspectRatio="xMidYMid meet">
<metadata>
Created by potrace 1.14, written by Peter Selinger 2001-2017
</metadata>
<g transform="translate(0.000000,700.000000) scale(0.100000,-0.100000)"
fill="#000000" stroke="none">
<path d="M2015 5678 c-3 -7 -4 -992 -3 -2188 l3 -2175 253 -3 252 -2 0 915 0
915 980 0 980 0 0 -915 0 -915 253 2 252 3 0 2185 0 2185 -252 3 -253 2 0
-1025 0 -1025 -980 0 -980 0 0 1025 0 1025 -250 0 c-191 0 -252 -3 -255 -12z"/>
<path d="M847 4924 c-4 -4 -7 -686 -7 -1516 l0 -1508 255 0 255 0 -2 1513 -3
1512 -246 3 c-135 1 -248 -1 -252 -4z"/>
<path d="M5657 4924 c-4 -4 -7 -686 -7 -1516 l0 -1508 255 0 255 0 -2 1513 -3
1512 -246 3 c-135 1 -248 -1 -252 -4z"/>
</g>
</svg>
