<svg xmlns="http://www.w3.org/2000/svg">
    <symbol id="icon-left" viewBox="0 0 39 16">
        <g>
            <path d="M0.292892 7.29289C-0.0976295 7.68342 -0.0976295 8.31658 0.292892 8.70711L6.65685 15.0711C7.04738 15.4616 7.68054 15.4616 8.07107 15.0711C8.46159 14.6805 8.46159 14.0474 8.07107 13.6569L2.41422 8L8.07107 2.34315C8.46159 1.95262 8.46159 1.31946 8.07107 0.928932C7.68054 0.538408 7.04738 0.538408 6.65685 0.928932L0.292892 7.29289ZM39 7L1 7V9L39 9V7Z"/>
        </g>
    </symbol>
    <symbol id="icon-right" viewBox="0 0 39 16">
        <g>
            <path d="M38.7071 8.70711C39.0976 8.31659 39.0976 7.68342 38.7071 7.2929L32.3431 0.928935C31.9526 0.538411 31.3195 0.538411 30.9289 0.928935C30.5384 1.31946 30.5384 1.95262 30.9289 2.34315L36.5858 8L30.9289 13.6569C30.5384 14.0474 30.5384 14.6805 30.9289 15.0711C31.3195 15.4616 31.9526 15.4616 32.3431 15.0711L38.7071 8.70711ZM-8.74228e-08 9L38 9L38 7L8.74228e-08 7L-8.74228e-08 9Z"/>
        </g>
    </symbol>
</svg>